PathFileType	4	(X/Y/Z)	S:\OneDrive - The University of Tokyo\ìåëÂéˆã∆\ÉoÉCÉÅÉJ\ë™íË\hirabayashi_2\Trimmed\Trimmed_BarR1Hirabayashi1.trc
DataRate	CameraRate	NumFrames	NumMarkers	Units	OrigDataRate	OrigDataStartFrame	OrigNumFrames
200.00	200.00	       24	12	mm	200.00	47	       373
Frame#	Time	BarR0			BarR50			BarR100			BarR130			BarR180			BarR230			BarL0			BarL50			BarL100			BarL130			BarL180			BarL230			
		X1	Y1	Z1	X2	Y2	Z2	X3	Y3	Z3	X4	Y4	Z4	X5	Y5	Z5	X6	Y6	Z6	X7	Y7	Z7	X8	Y8	Z8	X9	Y9	Z9	X10	Y10	Z10	X11	Y11	Z11	X12	Y12	Z12	

47	0.230	-578.06079	2752.59961	1664.32251	-605.88513	2303.74536	1644.04028	-639.82239	1850.86584	1630.72803	-662.53796	1349.33252	1630.79309	-691.18951	903.52570	1644.32251	-714.92255	456.35440	1663.72449	-1114.17944	2808.07446	1664.47668	-1141.08057	2356.25708	1667.49902	-1171.44153	1905.93152	1668.36646	-1198.98242	1404.08020	1668.84875	-1226.84729	952.53156	1667.93164	-1244.90405	506.23550	1667.26404	
48	0.235	-578.02539	2752.59033	1664.30103	-605.87634	2303.72461	1644.05212	-639.84229	1850.85840	1630.74255	-662.56232	1349.33337	1630.82520	-691.21881	903.53583	1644.33850	-714.91608	456.35175	1663.71423	-1114.29126	2808.07324	1664.46704	-1141.05652	2356.25879	1667.49304	-1171.44556	1905.94299	1668.37769	-1199.01611	1404.06067	1668.83826	-1226.84778	952.55304	1667.90918	-1244.88635	506.24106	1667.27698	
49	0.240	-578.04169	2752.61694	1664.31506	-605.89587	2303.73950	1644.04883	-639.85559	1850.87097	1630.74182	-662.58221	1349.32288	1630.83459	-691.19250	903.54510	1644.35583	-714.92780	456.36264	1663.71692	-1114.21228	2808.07202	1664.47351	-1141.06677	2356.25195	1667.50012	-1171.43359	1905.91455	1668.36328	-1199.02490	1404.01697	1668.85315	-1226.83301	952.54462	1667.92810	-1244.87085	506.22217	1667.26306	
50	0.245	-578.02277	2752.58936	1664.29053	-605.89801	2303.74170	1644.06274	-639.85529	1850.85876	1630.75220	-662.58154	1349.33569	1630.83875	-691.22003	903.55475	1644.33594	-714.94135	456.34515	1663.71802	-1114.22119	2808.06665	1664.45593	-1141.07874	2356.26001	1667.50024	-1171.45007	1905.90173	1668.36646	-1199.02319	1404.03247	1668.83716	-1226.84766	952.52563	1667.92114	-1244.87061	506.25061	1667.26917	
51	0.250	-578.04657	2752.59009	1664.30127	-605.89941	2303.76343	1644.05273	-639.87976	1850.86902	1630.73120	-662.61047	1349.33899	1630.83044	-691.25171	903.53113	1644.33423	-714.93433	456.35522	1663.71777	-1114.21484	2808.05176	1664.47449	-1141.09241	2356.24170	1667.48230	-1171.45654	1905.87878	1668.36450	-1199.03723	1404.01331	1668.82385	-1226.83630	952.52441	1667.92932	-1244.86865	506.20746	1667.26025	
52	0.255	-578.05548	2752.61182	1664.30530	-605.88409	2303.74121	1644.04773	-639.89484	1850.85791	1630.72510	-662.60925	1349.33362	1630.81458	-691.30109	903.48700	1644.13208	-714.95526	456.32791	1663.71082	-1114.27832	2808.04541	1664.46436	-1141.09607	2356.21631	1667.48389	-1171.48096	1905.90198	1668.36365	-1199.02625	1404.00806	1668.84094	-1226.85266	952.49310	1667.91443	-1244.85669	506.19705	1667.26733	
53	0.260	-578.04681	2752.59155	1664.29211	-605.90442	2303.73486	1644.03845	-639.89166	1850.85962	1630.72620	-662.60492	1349.32520	1630.80127	-691.23474	903.50671	1644.32117	-714.97858	456.33957	1663.70801	-1114.26099	2808.04883	1664.46289	-1141.10303	2356.18213	1667.46814	-1171.48230	1905.86597	1668.35059	-1199.03687	1403.96265	1668.81006	-1226.83350	952.47296	1667.91187	-1244.87915	506.19818	1667.26538	
54	0.265	-578.06854	2752.58081	1664.31628	-605.91040	2303.71948	1644.04395	-639.90546	1850.86780	1630.72668	-662.62738	1349.31934	1630.78601	-691.25739	903.50543	1644.30212	-714.97717	456.34555	1663.70862	-1114.24023	2808.01196	1664.46716	-1141.13257	2356.18481	1667.47644	-1171.46680	1905.85083	1668.34692	-1199.05298	1403.98254	1668.81665	-1226.84656	952.48291	1667.90491	-1244.86462	506.15747	1667.26160	
55	0.270	-578.07593	2752.57056	1664.30420	-605.91614	2303.73486	1644.00769	-639.91315	1850.85608	1630.69568	-662.64795	1349.31482	1630.76697	-691.26788	903.54578	1644.30237	-714.97742	456.36285	1663.70532	-1114.22754	2808.00171	1664.46973	-1141.08484	2356.21021	1667.47314	-1171.46643	1905.85181	1668.35156	-1199.04150	1403.97400	1668.80273	-1226.84473	952.47437	1667.89063	-1244.88330	506.17511	1667.27881	
56	0.275	-578.07251	2752.56006	1664.31226	-605.93646	2303.72388	1643.99792	-639.90448	1850.85437	1630.67480	-662.62952	1349.31042	1630.74866	-691.32617	903.45471	1644.08752	-714.95978	456.34634	1663.70288	-1114.20618	2808.03247	1664.47803	-1141.09961	2356.19238	1667.47729	-1171.46155	1905.86206	1668.34338	-1199.02710	1404.01160	1668.82983	-1226.85242	952.50476	1667.91577	-1244.89453	506.18759	1667.25952	
57	0.280	-578.07538	2752.58057	1664.30042	-605.91907	2303.73975	1643.99304	-639.91840	1850.86877	1630.65991	-662.63477	1349.32324	1630.72241	-691.24921	903.52545	1644.27478	-714.94336	456.33481	1663.70178	-1114.21960	2808.02588	1664.46899	-1141.08997	2356.21240	1667.46606	-1171.42346	1905.89026	1668.37097	-1199.04431	1403.99585	1668.82471	-1226.84595	952.50171	1667.93213	-1244.87354	506.21182	1667.25732	
58	0.285	-578.06256	2752.56006	1664.30078	-605.91742	2303.73828	1643.96448	-639.89899	1850.83936	1630.62354	-662.61719	1349.31812	1630.70264	-691.22455	903.51208	1644.24548	-714.95618	456.32593	1663.72009	-1114.19055	2808.06299	1664.46021	-1141.08228	2356.22119	1667.49133	-1171.43445	1905.88904	1668.36499	-1199.04517	1404.00671	1668.80420	-1226.85034	952.51062	1667.91858	-1244.88000	506.21512	1667.27417	
59	0.290	-578.07281	2752.54932	1664.28833	-605.89423	2303.71045	1643.95825	-639.89722	1850.84778	1630.62268	-662.63507	1349.30664	1630.67322	-691.24213	903.54382	1644.23938	-714.95844	456.30795	1663.71765	-1114.22925	2808.08374	1664.47241	-1141.10315	2356.24170	1667.46802	-1171.44824	1905.90173	1668.37048	-1199.00464	1404.06421	1668.85681	-1226.84229	952.52509	1667.91797	-1244.86780	506.23410	1667.27356	
60	0.295	-578.08167	2752.54663	1664.30310	-605.89496	2303.72388	1643.93982	-639.90015	1850.83496	1630.60315	-662.63184	1349.31738	1630.67358	-691.22375	903.52087	1644.23450	-714.94977	456.34833	1663.71155	-1114.23071	2808.10132	1664.47986	-1141.12305	2356.25854	1667.49048	-1171.43311	1905.90576	1668.36438	-1198.98279	1404.07800	1668.84875	-1226.83765	952.53998	1667.91919	-1244.88196	506.24716	1667.26709	
61	0.300	-578.06549	2752.55713	1664.30200	-605.92261	2303.73853	1643.93298	-639.86517	1850.84790	1630.57410	-662.63391	1349.32446	1630.64600	-691.22919	903.55371	1644.21436	-714.95142	456.36929	1663.70593	-1114.21277	2808.07568	1664.47192	-1141.10608	2356.24878	1667.48499	-1171.45593	1905.93030	1668.35803	-1199.03320	1404.01282	1668.83447	-1226.83960	952.54480	1667.92261	-1244.86096	506.22833	1667.27319	
62	0.305	-578.04919	2752.54712	1664.28967	-605.93018	2303.71338	1643.90613	-639.87305	1850.83459	1630.57434	-662.62262	1349.32263	1630.62854	-691.23706	903.51965	1644.20667	-714.95477	456.34427	1663.70837	-1114.18481	2808.05615	1664.47046	-1141.08289	2356.24658	1667.47644	-1171.44812	1905.89453	1668.35571	-1199.01465	1404.02673	1668.83691	-1226.84619	952.51483	1667.92468	-1244.87964	506.22757	1667.26440	
63	0.310	-578.07202	2752.54199	1664.30017	-605.92114	2303.72485	1643.88977	-639.89349	1850.85388	1630.53076	-662.62976	1349.32581	1630.61035	-691.23322	903.54144	1644.18005	-714.97546	456.34152	1663.70557	-1114.28259	2808.05444	1664.46252	-1141.09338	2356.24951	1667.48267	-1171.45288	1905.88550	1668.36523	-1199.03564	1404.01526	1668.82800	-1226.83154	952.50720	1667.91016	-1244.88403	506.24353	1667.26526	
64	0.315	-578.10321	2752.55615	1664.30981	-605.90942	2303.72119	1643.86365	-639.90424	1850.85254	1630.51318	-662.61377	1349.32312	1630.58411	-691.22711	903.53662	1644.18066	-714.98236	456.36121	1663.69507	-1114.23792	2808.03638	1664.47217	-1141.10168	2356.22119	1667.46753	-1171.44495	1905.87939	1668.35583	-1199.01233	1404.02771	1668.82251	-1226.84692	952.50537	1667.91040	-1244.88794	506.22516	1667.27246	
65	0.320	-578.10339	2752.53320	1664.30542	-605.94342	2303.74023	1643.85950	-639.91071	1850.83325	1630.50781	-662.63263	1349.30530	1630.55603	-691.23389	903.53760	1644.14990	-714.97455	456.35651	1663.71265	-1114.22302	2808.04053	1664.47107	-1141.10645	2356.20923	1667.47205	-1171.45984	1905.87085	1668.34216	-1199.06812	1403.99976	1668.82349	-1226.84814	952.48370	1667.91077	-1244.88196	506.17664	1667.26794	
66	0.325	-578.09521	2752.54077	1664.31555	-605.92224	2303.72510	1643.86255	-639.89160	1850.84814	1630.49207	-662.63239	1349.33667	1630.54126	-691.25220	903.52820	1644.15479	-714.95941	456.35553	1663.70325	-1114.21875	2808.03516	1664.47107	-1141.12781	2356.16992	1667.46350	-1171.45276	1905.85352	1668.35596	-1199.03760	1403.96484	1668.82251	-1226.85693	952.49573	1667.90381	-1244.87646	506.18073	1667.26721	
67	0.330	-578.11133	2752.54492	1664.31360	-605.93982	2303.71362	1643.86707	-639.89905	1850.83862	1630.48633	-662.64496	1349.32166	1630.53235	-691.25220	903.54047	1644.15015	-714.98291	456.33405	1663.70679	-1114.26587	2808.00195	1664.47461	-1141.09656	2356.19165	1667.48279	-1171.46899	1905.85815	1668.34875	-1199.05652	1403.97583	1668.82129	-1226.84619	952.48395	1667.90454	-1244.89136	506.18436	1667.26379	
68	0.335	-578.09088	2752.53223	1664.31396	-605.94049	2303.74463	1643.85339	-639.90643	1850.82104	1630.46692	-662.66266	1349.31128	1630.53723	-691.23132	903.50488	1644.14233	-714.99359	456.35840	1663.71411	-1114.27625	2808.00195	1664.47034	-1141.13306	2356.18433	1667.47449	-1171.44995	1905.87622	1668.36121	-1199.00598	1404.01563	1668.83252	-1226.83911	952.49603	1667.91418	-1244.87329	506.17633	1667.27454	
69	0.340	-578.09241	2752.54932	1664.30347	-605.94879	2303.74609	1643.85864	-639.92438	1850.81946	1630.48462	-662.67120	1349.32361	1630.54651	-691.26184	903.50806	1644.13916	-714.96997	456.34424	1663.70520	-1114.21350	2808.01172	1664.46838	-1141.09094	2356.20361	1667.47375	-1171.44312	1905.88367	1668.35925	-1199.00403	1404.02588	1668.83057	-1226.83264	952.49243	1667.92993	-1244.86450	506.20047	1667.27075	
70	0.345	-578.09912	2752.53198	1664.32092	-605.92462	2303.71338	1643.85864	-639.95221	1850.84045	1630.50012	-662.70911	1349.30554	1630.56311	-691.27118	903.53308	1644.16748	-714.96722	456.35504	1663.70496	-1114.20410	2808.02100	1664.46655	-1141.08142	2356.23315	1667.47559	-1171.44043	1905.87622	1668.35376	-1199.04590	1403.98743	1668.81372	-1226.84167	952.49884	1667.91479	-1244.86597	506.22031	1667.26355	
